<svg xmlns="http://www.w3.org/2000/svg" xmlns:xlink="http://www.w3.org/1999/xlink" width="1920" height="1080" viewBox="0 0 1920 1080">
  <defs>
    <radialGradient id="radial-gradient" cx="0.5" cy="0.5" r="1.228" gradientTransform="matrix(0.558, 0.132, -0.042, 0.558, 0.242, 0.155)" gradientUnits="objectBoundingBox">
      <stop offset="0" stop-color="#75d6f4"/>
      <stop offset="1" stop-color="#48c8ef"/>
    </radialGradient>
    <clipPath id="clip-Web_1920_1">
      <rect width="1920" height="1080"/>
    </clipPath>
  </defs>
  <g id="Web_1920_1" data-name="Web 1920 – 1" clip-path="url(#clip-Web_1920_1)">
    <rect width="1920" height="1080" fill="url(#radial-gradient)"/>
    <g id="Group_1" data-name="Group 1">
      <rect id="Rectangle_1" data-name="Rectangle 1" width="502" height="500" rx="57" transform="translate(544.424 257.034) rotate(45)" fill="#75d6f4"/>
      <rect id="Rectangle_2" data-name="Rectangle 2" width="213" height="212" rx="57" transform="translate(420.424 23.034) rotate(45)" fill="#75d6f4"/>
      <rect id="Rectangle_3" data-name="Rectangle 3" width="264" height="263" rx="57" transform="translate(1366.424 137.034) rotate(45)" fill="#75d6f4"/>
      <rect id="Rectangle_4" data-name="Rectangle 4" width="98" height="98" rx="20" transform="translate(792.424 78.034) rotate(45)" fill="#75d6f4"/>
      <rect id="Rectangle_5" data-name="Rectangle 5" width="98" height="98" rx="20" transform="translate(1583.424 147.034) rotate(45)" fill="#75d6f4"/>
      <rect id="Rectangle_6" data-name="Rectangle 6" width="98" height="98" rx="20" transform="translate(351.424 896.034) rotate(45)" fill="#75d6f4"/>
      <rect id="Rectangle_7" data-name="Rectangle 7" width="341" height="340" rx="57" transform="translate(1032.424 540.034) rotate(45)" fill="#75d6f4"/>
      <rect id="Rectangle_8" data-name="Rectangle 8" width="98" height="98" rx="20" transform="translate(1297.424 805.034) rotate(45)" fill="#75d6f4"/>
      <rect id="Rectangle_9" data-name="Rectangle 9" width="98" height="98" rx="20" transform="translate(260.424 188.034) rotate(45)" fill="#75d6f4"/>
      <rect id="Rectangle_10" data-name="Rectangle 10" width="67" height="67" rx="20" transform="translate(723.424 185.034) rotate(45)" fill="#75d6f4"/>
      <rect id="Rectangle_11" data-name="Rectangle 11" width="67" height="67" rx="20" transform="translate(1512.424 90.034) rotate(45)" fill="#75d6f4"/>
      <rect id="Rectangle_12" data-name="Rectangle 12" width="67" height="67" rx="20" transform="translate(173.424 639.034) rotate(45)" fill="#75d6f4"/>
      <rect id="Rectangle_13" data-name="Rectangle 13" width="67" height="67" rx="20" transform="translate(319.424 287.034) rotate(45)" fill="#75d6f4"/>
      <rect id="Rectangle_14" data-name="Rectangle 14" width="67" height="67" rx="20" transform="translate(1760.424 927.034) rotate(45)" fill="#75d6f4"/>
      <rect id="Rectangle_15" data-name="Rectangle 15" width="136" height="136" rx="20" transform="translate(1534.424 570.034) rotate(45)" fill="#75d6f4"/>
      <rect id="Rectangle_16" data-name="Rectangle 16" width="67" height="67" rx="20" transform="translate(782.424 805.034) rotate(45)" fill="#75d6f4"/>
      <rect id="Rectangle_17" data-name="Rectangle 17" width="67" height="67" rx="20" transform="translate(1098.424 493.034) rotate(45)" fill="#75d6f4"/>
      <rect id="Rectangle_18" data-name="Rectangle 18" width="67" height="67" rx="20" transform="translate(1642.424 564.034) rotate(45)" fill="#75d6f4"/>
      <rect id="Rectangle_19" data-name="Rectangle 19" width="98" height="98" rx="20" transform="translate(1622.424 711.034) rotate(45)" fill="#75d6f4"/>
      <rect id="Rectangle_20" data-name="Rectangle 20" width="148" height="148" rx="20" transform="translate(899.424 378.323) rotate(45)" fill="#75d6f4"/>
      <rect id="Rectangle_21" data-name="Rectangle 21" width="98" height="98" rx="20" transform="translate(1722.424 611.034) rotate(45)" fill="#75d6f4"/>
      <rect id="Rectangle_22" data-name="Rectangle 22" width="172" height="172" rx="30" transform="translate(1074.969 147.578) rotate(45)" fill="#75d6f4"/>
      <rect id="Rectangle_23" data-name="Rectangle 23" width="172" height="172" rx="30" transform="translate(1487.969 958.578) rotate(45)" fill="#75d6f4"/>
      <rect id="Rectangle_24" data-name="Rectangle 24" width="264" height="263" rx="57" transform="translate(-16.576 280.034) rotate(45)" fill="#75d6f4"/>
      <rect id="Rectangle_25" data-name="Rectangle 25" width="98" height="98" rx="20" transform="translate(351.424 896.034) rotate(45)" fill="#75d6f4"/>
      <rect id="Rectangle_26" data-name="Rectangle 26" width="98" height="98" rx="20" transform="translate(545.424 -68.966) rotate(45)" fill="#75d6f4"/>
      <rect id="Rectangle_27" data-name="Rectangle 27" width="172" height="172" rx="30" transform="translate(722.969 895.578) rotate(45)" fill="#75d6f4"/>
      <rect id="Rectangle_28" data-name="Rectangle 28" width="172" height="172" rx="30" transform="translate(207.969 762.578) rotate(45)" fill="#75d6f4"/>
      <rect id="Rectangle_29" data-name="Rectangle 29" width="172" height="172" rx="30" transform="translate(1797.969 296.578) rotate(45)" fill="#75d6f4"/>
      <rect id="Rectangle_30" data-name="Rectangle 30" width="341" height="340" rx="57" transform="translate(1774.424 -368.966) rotate(45)" fill="#75d6f4"/>
      <rect id="Rectangle_31" data-name="Rectangle 31" width="502" height="500" rx="57" transform="translate(1227.424 -465.966) rotate(45)" fill="#75d6f4"/>
    </g>
  </g>
</svg>
